<svg xmlns="http://www.w3.org/2000/svg" width="1024" height="1024" viewBox="0 0 1024 1024" version="1.1">
    <path d="M 0.248 384.675 L 0.500 648.351 145.500 684.484 C 269.980 715.505, 290.606 720.398, 291.250 719.059 C 292.410 716.646, 414.868 224.553, 414.421 224.097 C 413.976 223.642, 2.265 121, 0.885 121 C 0.368 121, 0.102 231.415, 0.248 384.675 M 548.249 548.251 C 449.112 647.389, 368 728.951, 368 729.500 C 368 730.048, 434.037 796.536, 514.749 877.249 L 661.497 1024 729 1024 L 796.503 1024 910.252 910.248 L 1024 796.497 1024 728.997 L 1024 661.497 877.249 514.749 C 796.536 434.037, 730.048 368, 729.498 368 C 728.948 368, 647.386 449.113, 548.249 548.251"
          stroke="none" fill="black" fill-rule="evenodd"/>
</svg>